<svg xmlns="http://www.w3.org/2000/svg" style="display:none">
    <symbol id="icon-lock" viewBox="0 0 16 16">
        <path fill-rule="evenodd" d="M8 0a4 4 0 0 1 4 4v2.05a2.5 2.5 0 0 1 2 2.45v5a2.5 2.5 0 0 1-2.5 2.5h-7A2.5 2.5 0 0 1 2 13.5v-5a2.5 2.5 0 0 1 2-2.45V4a4 4 0 0 1 4-4M4.5 7A1.5 1.5 0 0 0 3 8.5v5A1.5 1.5 0 0 0 4.5 15h7a1.5 1.5 0 0 0 1.5-1.5v-5A1.5 1.5 0 0 0 11.5 7zM8 1a3 3 0 0 0-3 3v2h6V4a3 3 0 0 0-3-3"/>
    </symbol>

    <symbol id="icon-lock-fill" viewBox="0 0 16 16">
        <path d="M8 0a4 4 0 0 1 4 4v2.05a2.5 2.5 0 0 1 2 2.45v5a2.5 2.5 0 0 1-2.5 2.5h-7A2.5 2.5 0 0 1 2 13.5v-5a2.5 2.5 0 0 1 2-2.45V4a4 4 0 0 1 4-4m0 1a3 3 0 0 0-3 3v2h6V4a3 3 0 0 0-3-3"/>
    </symbol>

    <symbol id="icon-shield" viewBox="0 0 16 16">
        <path d="M5.338 1.59a61 61 0 0 0-2.837.856.48.48 0 0 0-.328.39c-.554 4.157.726 7.19 2.253 9.188a10.7 10.7 0 0 0 2.287 2.233c.346.244.652.42.893.533q.18.085.293.118a1 1 0 0 0 .101.025 1 1 0 0 0 .1-.025q.114-.034.294-.118c.24-.113.547-.29.893-.533a10.7 10.7 0 0 0 2.287-2.233c1.527-1.997 2.807-5.031 2.253-9.188a.48.48 0 0 0-.328-.39c-.651-.213-1.75-.56-2.837-.855C9.552 1.29 8.531 1.067 8 1.067c-.53 0-1.552.223-2.662.524zM5.072.56C6.157.265 7.31 0 8 0s1.843.265 2.928.56c1.11.3 2.229.655 2.887.87a1.54 1.54 0 0 1 1.044 1.262c.596 4.477-.787 7.795-2.465 9.99a11.8 11.8 0 0 1-2.517 2.453 7 7 0 0 1-1.048.625c-.28.132-.581.24-.829.24s-.548-.108-.829-.24a7 7 0 0 1-1.048-.625 11.8 11.8 0 0 1-2.517-2.453C1.928 10.487.545 7.169 1.141 2.692A1.54 1.54 0 0 1 2.185 1.43 63 63 0 0 1 5.072.56"/>
    </symbol>

    <symbol id="icon-shield-fill" viewBox="0 0 16 16">
        <path d="M5.072.56C6.157.265 7.31 0 8 0s1.843.265 2.928.56c1.11.3 2.229.655 2.887.87a1.54 1.54 0 0 1 1.044 1.262c.596 4.477-.787 7.795-2.465 9.99a11.8 11.8 0 0 1-2.517 2.453 7 7 0 0 1-1.048.625c-.28.132-.581.24-.829.24s-.548-.108-.829-.24a7 7 0 0 1-1.048-.625 11.8 11.8 0 0 1-2.517-2.453C1.928 10.487.545 7.169 1.141 2.692A1.54 1.54 0 0 1 2.185 1.43 63 63 0 0 1 5.072.56"/>
    </symbol>

    <symbol id="icon-shield-lock-fill" viewBox="0 0 16 16">
        <path fill-rule="evenodd" d="M8 0c-.69 0-1.843.265-2.928.56-1.11.3-2.229.655-2.887.87a1.54 1.54 0 0 0-1.044 1.262c-.596 4.477.787 7.795 2.465 9.99a11.8 11.8 0 0 0 2.517 2.453c.386.273.744.482 1.048.625.28.132.581.24.829.24s.548-.108.829-.24a7 7 0 0 0 1.048-.625 11.8 11.8 0 0 0 2.517-2.453c1.678-2.195 3.061-5.513 2.465-9.99a1.54 1.54 0 0 0-1.044-1.263 63 63 0 0 0-2.887-.87C9.843.266 8.69 0 8 0m0 5a1.5 1.5 0 0 1 .5 2.915l.385 1.99a.5.5 0 0 1-.491.595h-.788a.5.5 0 0 1-.49-.595l.384-1.99A1.5 1.5 0 0 1 8 5"/>
    </symbol>

    <symbol id="can" viewBox="0 0 16 16">
        <path d="M16 8A8 8 0 1 1 0 8a8 8 0 0 1 16 0M8 3.5a.5.5 0 0 0-1 0V9a.5.5 0 0 0 .252.434l3.5 2a.5.5 0 0 0 .496-.868L8 8.71z"/>
    </symbol>

    <symbol id="icon-eye" viewBox="0 0 16 16">
        <path d="M16 8s-3-5.5-8-5.5S0 8 0 8s3 5.5 8 5.5S16 8 16 8M1.173 8a13 13 0 0 1 1.66-2.043C4.12 4.668 5.88 3.5 8 3.5s3.879 1.168 5.168 2.457A13 13 0 0 1 14.828 8q-.086.13-.195.288c-.335.48-.83 1.12-1.465 1.755C11.879 11.332 10.119 12.5 8 12.5s-3.879-1.168-5.168-2.457A13 13 0 0 1 1.172 8z"/>
        <path d="M8 5.5a2.5 2.5 0 1 0 0 5 2.5 2.5 0 0 0 0-5M4.5 8a3.5 3.5 0 1 1 7 0 3.5 3.5 0 0 1-7 0"/>
    </symbol>

    <symbol id="icon-check-circle" viewBox="0 0 16 16">
        <path d="M2.5 8a5.5 5.5 0 0 1 8.25-4.764.5.5 0 0 0 .5-.866A6.5 6.5 0 1 0 14.5 8a.5.5 0 0 0-1 0 5.5 5.5 0 1 1-11 0"/>
        <path d="M15.354 3.354a.5.5 0 0 0-.708-.708L8 9.293 5.354 6.646a.5.5 0 1 0-.708.708l3 3a.5.5 0 0 0 .708 0z"/>
    </symbol>

    <symbol id="icon-crown" viewBox="0 0 122.88 107.76">
        <path d="M21.13,83.86h80.25l12.54-34.73c0.65,0.21,1.35,0.32,2.07,0.32c3.8,0,6.89-3.08,6.89-6.89 c0-3.8-3.08-6.89-6.89-6.89c-3.8,0-6.89,3.08-6.89,6.89c0,1.5,0.48,2.88,1.29,4.01l-7.12,5.86c-9.97,8.2-16.22,4.4-14.27-8.34 l1.1-7.17c0.38,0.07,0.78,0.1,1.18,0.1c3.8,0,6.89-3.08,6.89-6.89c0-3.8-3.08-6.89-6.89-6.89c-3.8,0-6.89,3.08-6.89,6.89 c0,2.17,1.01,4.11,2.58,5.37l-1.71,2.7c-8.38,12.58-14.56,7.76-17.03-4.67l-4.41-20.31c2.47-1.05,4.21-3.49,4.21-6.35 c0-3.8-3.08-6.89-6.89-6.89c-3.8,0-6.89,3.08-6.89,6.89c0,3.18,2.15,5.85,5.07,6.65L56.46,25.1c-2.48,10.61-5.45,31.75-18.88,13.73 l-2.19-2.98c1.73-1.25,2.86-3.29,2.86-5.59c0-3.8-3.08-6.89-6.89-6.89c-3.8,0-6.89,3.08-6.89,6.89c0,3.8,3.08,6.89,6.89,6.89 c0.53,0,1.05-0.06,1.55-0.18l0.46,4.68c0.9,6.39,2.05,15.04-5.29,14.63c-3.64-0.2-5.01-1.44-7.79-3.42l-7.94-5.63 c0.89-1.16,1.42-2.61,1.42-4.19c0-3.8-3.08-6.89-6.89-6.89c-3.8,0-6.89,3.08-6.89,6.89s3.08,6.89,6.89,6.89 c0.9,0,1.75-0.17,2.54-0.48L21.13,83.86L21.13,83.86z M21.07,93.47h80.51v14.29H21.07V93.47L21.07,93.47z" />
    </symbol>

    <symbol id="icon-envelope" viewBox="0 0 16 16">
        <path d="M0 4a2 2 0 0 1 2-2h12a2 2 0 0 1 2 2v8a2 2 0 0 1-2 2H2a2 2 0 0 1-2-2zm2-1a1 1 0 0 0-1 1v.217l7 4.2 7-4.2V4a1 1 0 0 0-1-1zm13 2.383-4.708 2.825L15 11.105zm-.034 6.876-5.64-3.471L8 9.583l-1.326-.795-5.64 3.47A1 1 0 0 0 2 13h12a1 1 0 0 0 .966-.741M1 11.105l4.708-2.897L1 5.383z"/>
    </symbol>

    <symbol id="icon-file-earmark-text" viewBox="0 0 16 16">
        <path d="M5.5 7a.5.5 0 0 0 0 1h5a.5.5 0 0 0 0-1zM5 9.5a.5.5 0 0 1 .5-.5h5a.5.5 0 0 1 0 1h-5a.5.5 0 0 1-.5-.5m0 2a.5.5 0 0 1 .5-.5h2a.5.5 0 0 1 0 1h-2a.5.5 0 0 1-.5-.5"/>
        <path d="M9.5 0H4a2 2 0 0 0-2 2v12a2 2 0 0 0 2 2h8a2 2 0 0 0 2-2V4.5zm0 1v2A1.5 1.5 0 0 0 11 4.5h2V14a1 1 0 0 1-1 1H4a1 1 0 0 1-1-1V2a1 1 0 0 1 1-1z"/>
    </symbol>

    <symbol id="icon-geo-alt-fill" viewBox="0 0 16 16">
        <path d="M8 16s6-5.686 6-10A6 6 0 0 0 2 6c0 4.314 6 10 6 10m0-7a3 3 0 1 1 0-6 3 3 0 0 1 0 6"/>
    </symbol>

    <symbol id="icon-globe" viewBox="0 0 16 16">
        <path d="M0 8a8 8 0 1 1 16 0A8 8 0 0 1 0 8m7.5-6.923c-.67.204-1.335.82-1.887 1.855A8 8 0 0 0 5.145 4H7.5zM4.09 4a9.3 9.3 0 0 1 .64-1.539 7 7 0 0 1 .597-.933A7.03 7.03 0 0 0 2.255 4zm-.582 3.5c.03-.877.138-1.718.312-2.5H1.674a7 7 0 0 0-.656 2.5zM4.847 5a12.5 12.5 0 0 0-.338 2.5H7.5V5zM8.5 5v2.5h2.99a12.5 12.5 0 0 0-.337-2.5zM4.51 8.5a12.5 12.5 0 0 0 .337 2.5H7.5V8.5zm3.99 0V11h2.653c.187-.765.306-1.608.338-2.5zM5.145 12q.208.58.468 1.068c.552 1.035 1.218 1.65 1.887 1.855V12zm.182 2.472a7 7 0 0 1-.597-.933A9.3 9.3 0 0 1 4.09 12H2.255a7 7 0 0 0 3.072 2.472M3.82 11a13.7 13.7 0 0 1-.312-2.5h-2.49c.062.89.291 1.733.656 2.5zm6.853 3.472A7 7 0 0 0 13.745 12H11.91a9.3 9.3 0 0 1-.64 1.539 7 7 0 0 1-.597.933M8.5 12v2.923c.67-.204 1.335-.82 1.887-1.855q.26-.487.468-1.068zm3.68-1h2.146c.365-.767.594-1.61.656-2.5h-2.49a13.7 13.7 0 0 1-.312 2.5m2.802-3.5a7 7 0 0 0-.656-2.5H12.18c.174.782.282 1.623.312 2.5zM11.27 2.461c.247.464.462.98.64 1.539h1.835a7 7 0 0 0-3.072-2.472c.218.284.418.598.597.933M10.855 4a8 8 0 0 0-.468-1.068C9.835 1.897 9.17 1.282 8.5 1.077V4z"/>
    </symbol>

    <symbol id="icon-people" viewBox="0 0 16 16">
        <path d="M15 14s1 0 1-1-1-4-5-4-5 3-5 4 1 1 1 1zm-7.978-1L7 12.996c.001-.264.167-1.03.76-1.72C8.312 10.629 9.282 10 11 10c1.717 0 2.687.63 3.24 1.276.593.69.758 1.457.76 1.72l-.008.002-.014.002zM11 7a2 2 0 1 0 0-4 2 2 0 0 0 0 4m3-2a3 3 0 1 1-6 0 3 3 0 0 1 6 0M6.936 9.28a6 6 0 0 0-1.23-.247A7 7 0 0 0 5 9c-4 0-5 3-5 4q0 1 1 1h4.216A2.24 2.24 0 0 1 5 13c0-1.01.377-2.042 1.09-2.904.243-.294.526-.569.846-.816M4.92 10A5.5 5.5 0 0 0 4 13H1c0-.26.164-1.03.76-1.724.545-.636 1.492-1.256 3.16-1.275ZM1.5 5.5a3 3 0 1 1 6 0 3 3 0 0 1-6 0m3-2a2 2 0 1 0 0 4 2 2 0 0 0 0-4"/>
    </symbol>

    <symbol id="icon-telephone" viewBox="0 0 16 16">
        <path d="M3.654 1.328a.678.678 0 0 0-1.015-.063L1.605 2.3c-.483.484-.661 1.169-.45 1.77a17.6 17.6 0 0 0 4.168 6.608 17.6 17.6 0 0 0 6.608 4.168c.601.211 1.286.033 1.77-.45l1.034-1.034a.678.678 0 0 0-.063-1.015l-2.307-1.794a.68.68 0 0 0-.58-.122l-2.19.547a1.75 1.75 0 0 1-1.657-.459L5.482 8.062a1.75 1.75 0 0 1-.46-1.657l.548-2.19a.68.68 0 0 0-.122-.58zM1.884.511a1.745 1.745 0 0 1 2.612.163L6.29 2.98c.329.423.445.974.315 1.494l-.547 2.19a.68.68 0 0 0 .178.643l2.457 2.457a.68.68 0 0 0 .644.178l2.189-.547a1.75 1.75 0 0 1 1.494.315l2.306 1.794c.829.645.905 1.87.163 2.611l-1.034 1.034c-.74.74-1.846 1.065-2.877.702a18.6 18.6 0 0 1-7.01-4.42 18.6 18.6 0 0 1-4.42-7.009c-.362-1.03-.037-2.137.703-2.877z"/>
    </symbol>

    <symbol id="icon-clock" viewBox="0 0 16 16">
        <path d="M8 3.5a.5.5 0 0 0-1 0V9a.5.5 0 0 0 .252.434l3.5 2a.5.5 0 0 0 .496-.868L8 8.71z"/>
        <path d="M8 16A8 8 0 1 0 8 0a8 8 0 0 0 0 16m7-8A7 7 0 1 1 1 8a7 7 0 0 1 14 0"/>
    </symbol>

    <symbol id="icon-instagram" viewBox="0 0 32 32">
        <path d="M20.445 5h-8.891A6.559 6.559 0 0 0 5 11.554v8.891A6.559 6.559 0 0 0 11.554 27h8.891a6.56 6.56 0 0 0 6.554-6.555v-8.891A6.557 6.557 0 0 0 20.445 5zm4.342 15.445a4.343 4.343 0 0 1-4.342 4.342h-8.891a4.341 4.341 0 0 1-4.341-4.342v-8.891a4.34 4.34 0 0 1 4.341-4.341h8.891a4.342 4.342 0 0 1 4.341 4.341l.001 8.891z"/><path d="M16 10.312c-3.138 0-5.688 2.551-5.688 5.688s2.551 5.688 5.688 5.688 5.688-2.551 5.688-5.688-2.55-5.688-5.688-5.688zm0 9.163a3.475 3.475 0 1 1-.001-6.95 3.475 3.475 0 0 1 .001 6.95zM21.7 8.991a1.363 1.363 0 1 1-1.364 1.364c0-.752.51-1.364 1.364-1.364z"/>
    </symbol>
</svg>